<?xml version="1.0" encoding="UTF-8"?>
<svg xmlns="http://www.w3.org/2000/svg" xmlns:xlink="http://www.w3.org/1999/xlink" width="50px" height="50px" viewBox="0 0 50 50" version="1.1">
<g id="surface1">
<path style=" stroke:none;fill-rule:nonzero;fill:rgb(0%,0%,0%);fill-opacity:1;" d="M 40.355469 15.207031 C 40.355469 14.777344 40.707031 14.425781 41.136719 14.425781 C 41.566406 14.425781 41.917969 14.777344 41.917969 15.207031 L 41.917969 45.171875 C 41.917969 46.496094 41.375 47.699219 40.503906 48.574219 C 39.628906 49.445312 38.425781 49.988281 37.101562 49.988281 L 12.886719 49.988281 C 11.566406 49.988281 10.359375 49.445312 9.488281 48.574219 C 8.613281 47.699219 8.070312 46.496094 8.070312 45.171875 L 8.070312 15.207031 C 8.070312 14.777344 8.421875 14.425781 8.851562 14.425781 C 9.285156 14.425781 9.632812 14.777344 9.632812 15.207031 L 9.632812 45.171875 C 9.632812 46.0625 10 46.878906 10.589844 47.46875 C 11.179688 48.058594 11.996094 48.425781 12.886719 48.425781 L 37.101562 48.425781 C 37.992188 48.425781 38.804688 48.058594 39.394531 47.46875 C 39.984375 46.878906 40.351562 46.0625 40.351562 45.175781 L 40.351562 15.207031 Z M 40.355469 15.207031 "/>
<path style=" stroke:none;fill-rule:nonzero;fill:rgb(0%,0%,0%);fill-opacity:1;" d="M 19.167969 43.15625 C 19.167969 43.585938 18.820312 43.9375 18.386719 43.9375 C 17.957031 43.9375 17.605469 43.585938 17.605469 43.15625 L 17.605469 15.410156 C 17.605469 14.980469 17.957031 14.628906 18.386719 14.628906 C 18.820312 14.628906 19.167969 14.980469 19.167969 15.410156 Z M 25.777344 43.15625 C 25.777344 43.585938 25.425781 43.9375 24.996094 43.9375 C 24.5625 43.9375 24.214844 43.585938 24.214844 43.15625 L 24.214844 15.410156 C 24.214844 14.980469 24.5625 14.628906 24.996094 14.628906 C 25.425781 14.628906 25.777344 14.980469 25.777344 15.410156 Z M 32.382812 43.15625 C 32.382812 43.585938 32.035156 43.9375 31.601562 43.9375 C 31.171875 43.9375 30.820312 43.585938 30.820312 43.15625 L 30.820312 15.410156 C 30.820312 14.980469 31.171875 14.628906 31.601562 14.628906 C 32.035156 14.628906 32.382812 14.980469 32.382812 15.410156 Z M 18.714844 4.816406 C 18.714844 5.246094 18.363281 5.597656 17.933594 5.597656 C 17.5 5.597656 17.152344 5.246094 17.152344 4.816406 C 17.152344 3.492188 17.691406 2.285156 18.566406 1.414062 C 19.4375 0.542969 20.640625 0 21.96875 0 L 28.019531 0 C 29.347656 0 30.550781 0.542969 31.421875 1.414062 C 32.292969 2.289062 32.835938 3.496094 32.835938 4.816406 C 32.835938 5.246094 32.488281 5.597656 32.058594 5.597656 C 31.625 5.597656 31.277344 5.246094 31.277344 4.816406 C 31.277344 3.925781 30.90625 3.109375 30.320312 2.519531 C 29.730469 1.929688 28.914062 1.5625 28.023438 1.5625 L 21.96875 1.5625 C 21.074219 1.5625 20.261719 1.929688 19.671875 2.519531 C 19.082031 3.109375 18.714844 3.921875 18.714844 4.816406 Z M 6.835938 7.0625 L 43.15625 7.0625 C 43.921875 7.0625 44.621094 7.375 45.128906 7.882812 L 45.132812 7.886719 C 45.640625 8.394531 45.953125 9.09375 45.953125 9.859375 L 45.953125 11.878906 C 45.953125 12.308594 45.601562 12.660156 45.171875 12.660156 L 4.816406 12.660156 C 4.386719 12.660156 4.035156 12.308594 4.035156 11.878906 L 4.035156 9.859375 C 4.035156 9.097656 4.347656 8.394531 4.855469 7.886719 L 4.859375 7.882812 C 5.367188 7.375 6.070312 7.0625 6.835938 7.0625 Z M 43.15625 8.625 L 6.835938 8.625 C 6.496094 8.625 6.183594 8.761719 5.960938 8.984375 L 5.957031 8.988281 C 5.726562 9.21875 5.597656 9.535156 5.597656 9.859375 L 5.597656 11.097656 L 44.390625 11.097656 L 44.390625 9.859375 C 44.390625 9.535156 44.261719 9.21875 44.027344 8.988281 L 44.023438 8.984375 C 43.792969 8.753906 43.480469 8.625 43.15625 8.625 Z M 43.15625 8.625 "/>
</g>
</svg>
